# Blender v2.78 (sub 0) OBJ File: ''
# www.blender.org
mtllib sphere.mtl
o Sphere
v 0.500000 -0.000000 0.866025
v 0.866025 -0.000000 0.500000
v 1.000000 -0.000000 0.000000
v 0.866025 -0.000000 -0.500000
v 0.500000 -0.000000 -0.866025
v -0.000000 0.000000 1.000000
v 0.250000 -0.433013 0.866025
v 0.433013 -0.750000 0.500000
v 0.500000 -0.866025 0.000000
v 0.433013 -0.750000 -0.500000
v 0.250000 -0.433013 -0.866025
v -0.250000 -0.433013 0.866025
v -0.433013 -0.750000 0.500000
v -0.500000 -0.866025 0.000000
v -0.433013 -0.750000 -0.500000
v -0.250000 -0.433013 -0.866025
v -0.500000 0.000000 0.866025
v -0.866025 0.000000 0.500000
v -1.000000 0.000000 0.000000
v -0.866025 0.000000 -0.500000
v -0.500000 0.000000 -0.866025
v 0.000000 -0.000000 -1.000000
v -0.250000 0.433013 0.866025
v -0.433012 0.750000 0.500000
v -0.500000 0.866025 0.000000
v -0.433012 0.750000 -0.500000
v -0.250000 0.433013 -0.866025
v 0.250000 0.433012 0.866025
v 0.433013 0.750000 0.500000
v 0.500000 0.866025 0.000000
v 0.433013 0.750000 -0.500000
v 0.250000 0.433013 -0.866025
vt 0.9983 0.2050
vt 0.8967 0.2947
vt 0.8432 0.1474
vt 0.7880 0.5584
vt 0.7080 0.2301
vt 0.8365 0.4222
vt 0.6374 0.7867
vt 0.6091 0.5158
vt 0.7310 0.6883
vt 0.6482 0.3675
vt 0.4983 0.7950
vt 0.5680 0.6631
vt 1.1080 0.0536
vt 0.4559 0.3004
vt 0.4798 0.6307
vt 0.4257 0.1377
vt 0.4686 0.4655
vt 0.1374 0.2133
vt 0.1080 0.0536
vt 0.2880 0.4416
vt 0.3967 0.7053
vt 1.1374 0.2133
vt 0.2310 0.3117
vt 0.3365 0.5778
vt 0.0680 0.3369
vt 0.1482 0.6325
vt 0.3432 0.8526
vt 1.0680 0.3369
vt 0.1091 0.4842
vt 0.2080 0.7699
vt 0.9686 0.5345
vt 0.9798 0.3693
vt 1.2080 0.7699
vt 0.9559 0.6996
vt 1.1482 0.6325
vt 0.6080 0.9464
vt 1.1091 0.4842
vt 1.3432 0.8526
vt 0.9257 0.8623
vn 0.2560 -0.1478 -0.9553
vn 0.8436 -0.4871 -0.2260
vn 0.6547 -0.3780 0.6547
vn 0.6547 -0.3780 -0.6547
vn 0.8436 -0.4871 0.2260
vn 0.2560 -0.1478 0.9553
vn 0.0000 -0.7559 -0.6547
vn 0.0000 -0.9741 0.2260
vn 0.0000 -0.2956 0.9553
vn 0.0000 -0.2956 -0.9553
vn 0.0000 -0.9741 -0.2260
vn 0.0000 -0.7559 0.6547
vn -0.6547 -0.3780 -0.6547
vn -0.8436 -0.4871 0.2260
vn -0.2560 -0.1478 0.9553
vn -0.2560 -0.1478 -0.9553
vn -0.8436 -0.4871 -0.2260
vn -0.6547 -0.3780 0.6547
vn -0.6547 0.3780 -0.6547
vn -0.8436 0.4871 0.2260
vn -0.2560 0.1478 0.9553
vn -0.2560 0.1478 -0.9553
vn -0.8436 0.4871 -0.2260
vn -0.6547 0.3780 0.6547
vn 0.0000 0.7559 -0.6547
vn 0.0000 0.9741 0.2260
vn 0.0000 0.2956 0.9553
vn 0.0000 0.2956 -0.9553
vn 0.0000 0.9741 -0.2260
vn 0.0000 0.7559 0.6547
vn 0.8436 0.4871 0.2260
vn 0.2560 0.1478 0.9553
vn 0.2560 0.1478 -0.9553
vn 0.8436 0.4871 -0.2260
vn 0.6547 0.3780 0.6547
vn 0.6547 0.3780 -0.6547
usemtl None
s off
f 22/1/1 5/2/1 11/3/1
f 3/4/2 10/5/2 4/6/2
f 1/7/3 8/8/3 2/9/3
f 4/6/4 11/3/4 5/2/4
f 2/9/5 9/10/5 3/4/5
f 1/7/6 6/11/6 7/12/6
f 10/5/7 16/13/7 11/3/7
f 8/8/8 14/14/8 9/10/8
f 7/12/9 6/11/9 12/15/9
f 22/1/10 11/3/10 16/13/10
f 9/10/11 15/16/11 10/5/11
f 7/12/12 13/17/12 8/8/12
f 15/16/13 21/18/13 16/19/13
f 13/17/14 19/20/14 14/14/14
f 12/15/15 6/11/15 17/21/15
f 22/1/16 16/13/16 21/22/16
f 14/14/17 20/23/17 15/16/17
f 12/15/18 18/24/18 13/17/18
f 20/23/19 27/25/19 21/18/19
f 18/24/20 25/26/20 19/20/20
f 17/21/21 6/11/21 23/27/21
f 22/1/22 21/22/22 27/28/22
f 20/23/23 25/26/23 26/29/23
f 17/21/24 24/30/24 18/24/24
f 27/28/25 31/31/25 32/32/25
f 24/33/26 30/34/26 25/35/26
f 23/27/27 6/11/27 28/36/27
f 22/1/28 27/28/28 32/32/28
f 26/37/29 30/34/29 31/31/29
f 23/38/30 29/39/30 24/33/30
f 29/39/31 3/4/31 30/34/31
f 28/36/32 6/11/32 1/7/32
f 22/1/33 32/32/33 5/2/33
f 30/34/34 4/6/34 31/31/34
f 28/36/35 2/9/35 29/39/35
f 32/32/36 4/6/36 5/2/36
f 3/4/2 9/10/2 10/5/2
f 1/7/3 7/12/3 8/8/3
f 4/6/4 10/5/4 11/3/4
f 2/9/5 8/8/5 9/10/5
f 10/5/7 15/16/7 16/13/7
f 8/8/8 13/17/8 14/14/8
f 9/10/11 14/14/11 15/16/11
f 7/12/12 12/15/12 13/17/12
f 15/16/13 20/23/13 21/18/13
f 13/17/14 18/24/14 19/20/14
f 14/14/17 19/20/17 20/23/17
f 12/15/18 17/21/18 18/24/18
f 20/23/19 26/29/19 27/25/19
f 18/24/20 24/30/20 25/26/20
f 20/23/23 19/20/23 25/26/23
f 17/21/24 23/27/24 24/30/24
f 27/28/25 26/37/25 31/31/25
f 24/33/26 29/39/26 30/34/26
f 26/37/29 25/35/29 30/34/29
f 23/38/30 28/36/30 29/39/30
f 29/39/31 2/9/31 3/4/31
f 30/34/34 3/4/34 4/6/34
f 28/36/35 1/7/35 2/9/35
f 32/32/36 31/31/36 4/6/36
